<svg xmlns="http://www.w3.org/2000/svg" xmlns:xlink="http://www.w3.org/1999/xlink" viewBox="0 0 430 430" width="430" height="430" preserveAspectRatio="xMidYMid meet" style="width: 100%; height: 100%; transform: translate3d(0px, 0px, 0px); content-visibility: visible;"><defs><clipPath id="__lottie_element_7803"><rect width="430" height="430" x="0" y="0"/></clipPath><clipPath id="__lottie_element_7805"><path d="M0,0 L430,0 L430,430 L0,430z"/></clipPath><g id="__lottie_element_7833"><g transform="matrix(0,-1,1,0,215,214.06028747558594)" opacity="1" style="display: none;"><g opacity="1" transform="matrix(1,0,0,1,0,0)"><path fill="rgb(255,0,0)" fill-opacity="1" d=" M-84.99800109863281,110.78900146484375 C-84.99800109863281,110.78900146484375 69.9800033569336,110.78900146484375 69.9800033569336,110.78900146484375 C76.27899932861328,110.78900146484375 81.49299621582031,105.68499755859375 81.38400268554688,99.2770004272461 C81.38400268554688,99.2770004272461 81.38400268554688,-121.0270004272461 81.38400268554688,-121.0270004272461 C81.38400268554688,-127.32599639892578 76.27899932861328,-132.53900146484375 69.87100219726562,-132.53900146484375 C69.87100219726562,-132.53900146484375 -84.99800109863281,-132.53900146484375 -84.99800109863281,-132.53900146484375 C-91.2969970703125,-132.53900146484375 -96.51000213623047,-127.43499755859375 -96.51000213623047,-121.0270004272461 C-96.51000213623047,-121.0270004272461 -96.51000213623047,99.2770004272461 -96.51000213623047,99.2770004272461 C-96.51000213623047,105.57599639892578 -91.40599822998047,110.78900146484375 -84.99800109863281,110.78900146484375z"/></g></g></g><g id="__lottie_element_7836"><g transform="matrix(0,-1,1,0,215,188.99899291992188)" opacity="1" style="display: none;"><g opacity="1" transform="matrix(1,0,0,1,0,0)"><path fill="rgb(255,0,0)" fill-opacity="1" d=" M-112.68499755859375,167.66400146484375 C-112.68499755859375,167.66400146484375 118.97999572753906,167.66400146484375 118.97999572753906,167.66400146484375 C125.27899932861328,167.66400146484375 130.4929962158203,162.55999755859375 130.38400268554688,156.15199279785156 C130.38400268554688,156.15199279785156 130.38400268554688,-156.15199279785156 130.38400268554688,-156.15199279785156 C130.38400268554688,-162.4510040283203 125.27899932861328,-167.66400146484375 118.8709945678711,-167.66400146484375 C118.8709945678711,-167.66400146484375 -112.68499755859375,-167.66400146484375 -112.68499755859375,-167.66400146484375 C-118.98400115966797,-167.66400146484375 -124.197998046875,-162.55999755859375 -124.197998046875,-156.15199279785156 C-124.197998046875,-156.15199279785156 -124.197998046875,156.15199279785156 -124.197998046875,156.15199279785156 C-124.197998046875,162.4510040283203 -119.09300231933594,167.66400146484375 -112.68499755859375,167.66400146484375z"/></g><g opacity="1" transform="matrix(1,0,0,1,0,0)"><path stroke-linecap="round" stroke-linejoin="round" fill-opacity="0" stroke="rgb(255,0,0)" stroke-opacity="1" stroke-width="7" d=" M-112.68499755859375,167.66400146484375 C-112.68499755859375,167.66400146484375 118.97999572753906,167.66400146484375 118.97999572753906,167.66400146484375 C125.27899932861328,167.66400146484375 130.4929962158203,162.55999755859375 130.38400268554688,156.15199279785156 C130.38400268554688,156.15199279785156 130.38400268554688,-156.15199279785156 130.38400268554688,-156.15199279785156 C130.38400268554688,-162.4510040283203 125.27899932861328,-167.66400146484375 118.8709945678711,-167.66400146484375 C118.8709945678711,-167.66400146484375 -112.68499755859375,-167.66400146484375 -112.68499755859375,-167.66400146484375 C-118.98400115966797,-167.66400146484375 -124.197998046875,-162.55999755859375 -124.197998046875,-156.15199279785156 C-124.197998046875,-156.15199279785156 -124.197998046875,156.15199279785156 -124.197998046875,156.15199279785156 C-124.197998046875,162.4510040283203 -119.09300231933594,167.66400146484375 -112.68499755859375,167.66400146484375z"/></g></g></g><filter id="__lottie_element_7939" filterUnits="objectBoundingBox" x="0%" y="0%" width="100%" height="100%"><feComponentTransfer in="SourceGraphic"><feFuncA type="table" tableValues="1.0 0.0"/></feComponentTransfer></filter><mask id="__lottie_element_7833_2" mask-type="alpha"><g filter="url(#__lottie_element_7939)"><rect width="430" height="430" x="0" y="0" fill="#ffffff" opacity="0"/><use xmlns:ns1="http://www.w3.org/1999/xlink" ns1:href="#__lottie_element_7833"/></g></mask><g id="__lottie_element_7943"><g transform="matrix(0,-1,1,0,215,188.99899291992188)" opacity="1" style="display: none;"><g opacity="1" transform="matrix(1,0,0,1,0,0)"><path fill="rgb(255,0,0)" fill-opacity="1" d=" M-112.68499755859375,167.66400146484375 C-112.68499755859375,167.66400146484375 118.97999572753906,167.66400146484375 118.97999572753906,167.66400146484375 C125.27899932861328,167.66400146484375 130.4929962158203,162.55999755859375 130.38400268554688,156.15199279785156 C130.38400268554688,156.15199279785156 130.38400268554688,-156.15199279785156 130.38400268554688,-156.15199279785156 C130.38400268554688,-162.4510040283203 125.27899932861328,-167.66400146484375 118.8709945678711,-167.66400146484375 C118.8709945678711,-167.66400146484375 -112.68499755859375,-167.66400146484375 -112.68499755859375,-167.66400146484375 C-118.98400115966797,-167.66400146484375 -124.197998046875,-162.55999755859375 -124.197998046875,-156.15199279785156 C-124.197998046875,-156.15199279785156 -124.197998046875,156.15199279785156 -124.197998046875,156.15199279785156 C-124.197998046875,162.4510040283203 -119.09300231933594,167.66400146484375 -112.68499755859375,167.66400146484375z"/></g><g opacity="1" transform="matrix(1,0,0,1,0,0)"><path stroke-linecap="round" stroke-linejoin="round" fill-opacity="0" stroke="rgb(255,0,0)" stroke-opacity="1" stroke-width="7" d=" M-112.68499755859375,167.66400146484375 C-112.68499755859375,167.66400146484375 118.97999572753906,167.66400146484375 118.97999572753906,167.66400146484375 C125.27899932861328,167.66400146484375 130.4929962158203,162.55999755859375 130.38400268554688,156.15199279785156 C130.38400268554688,156.15199279785156 130.38400268554688,-156.15199279785156 130.38400268554688,-156.15199279785156 C130.38400268554688,-162.4510040283203 125.27899932861328,-167.66400146484375 118.8709945678711,-167.66400146484375 C118.8709945678711,-167.66400146484375 -112.68499755859375,-167.66400146484375 -112.68499755859375,-167.66400146484375 C-118.98400115966797,-167.66400146484375 -124.197998046875,-162.55999755859375 -124.197998046875,-156.15199279785156 C-124.197998046875,-156.15199279785156 -124.197998046875,156.15199279785156 -124.197998046875,156.15199279785156 C-124.197998046875,162.4510040283203 -119.09300231933594,167.66400146484375 -112.68499755859375,167.66400146484375z"/></g></g></g><mask id="__lottie_element_7943_1" mask-type="alpha"><use xmlns:ns2="http://www.w3.org/1999/xlink" ns2:href="#__lottie_element_7943"/></mask><g id="__lottie_element_7955"><g transform="matrix(0,-1,1,0,215,188.99899291992188)" opacity="1" style="display: none;"><g opacity="1" transform="matrix(1,0,0,1,0,0)"><path fill="rgb(75,179,253)" fill-opacity="1" d=" M-78.14500427246094,156.5699920654297 C-78.14500427246094,156.5699920654297 106.48699188232422,156.5699920654297 106.48699188232422,156.5699920654297 C113.05999755859375,156.5699920654297 118.49899291992188,151.24398803710938 118.38599395751953,144.55799865722656 C118.38599395751953,144.55799865722656 118.38599395751953,-145.0500030517578 118.38599395751953,-145.0500030517578 C118.38599395751953,-151.6230010986328 113.05999755859375,-157.06300354003906 106.37399291992188,-157.06300354003906 C106.37399291992188,-157.06300354003906 -78.14500427246094,-157.06300354003906 -78.14500427246094,-157.06300354003906 C-84.71800231933594,-157.06300354003906 -90.15799713134766,-151.73599243164062 -90.15799713134766,-145.0500030517578 C-90.15799713134766,-145.0500030517578 -90.15799713134766,144.55799865722656 -90.15799713134766,144.55799865722656 C-90.15799713134766,151.13099670410156 -84.83100128173828,156.5699920654297 -78.14500427246094,156.5699920654297z"/></g></g></g><mask id="__lottie_element_7836_1" mask-type="alpha"><use xmlns:ns3="http://www.w3.org/1999/xlink" ns3:href="#__lottie_element_7836"/></mask><mask id="__lottie_element_7955_1" mask-type="alpha"><use xmlns:ns4="http://www.w3.org/1999/xlink" ns4:href="#__lottie_element_7955"/></mask><g id="__lottie_element_7973"><g transform="matrix(0,-1,1,0,215,188.99899291992188)" opacity="1" style="display: block;"><g opacity="1" transform="matrix(1,0,0,1,0,0)"><path fill="rgb(255,0,0)" fill-opacity="1" d=" M-184.90003967285156,111.11798858642578 C-184.90003967285156,111.11798858642578 143.3447265625,111.11798858642578 143.3447265625,111.11798858642578 C149.67864990234375,111.11798858642578 154.9213409423828,105.98481750488281 154.81182861328125,99.54137420654297 C154.81182861328125,99.54137420654297 154.81182861328125,-99.55000305175781 154.81182861328125,-99.55000305175781 C154.81182861328125,-105.88392639160156 149.67864990234375,-111.12586975097656 143.23521423339844,-111.12586975097656 C143.23521423339844,-111.12586975097656 -184.90003967285156,-111.12586975097656 -184.90003967285156,-111.12586975097656 C-191.2339630126953,-111.12586975097656 -196.4759063720703,-105.99343872070312 -196.4759063720703,-99.55000305175781 C-196.4759063720703,-99.55000305175781 -196.4759063720703,99.54137420654297 -196.4759063720703,99.54137420654297 C-196.4759063720703,105.87530517578125 -191.34347534179688,111.11798858642578 -184.90003967285156,111.11798858642578z"/></g></g></g><g id="__lottie_element_7982"><g transform="matrix(1,0,0,1,215,170)" opacity="1" style="display: none;"><g opacity="1" transform="matrix(1,0,0,1,0,-10)"><path class="tertiary" fill="rgb(58,51,71)" fill-opacity="1" d=" M145.76724243164062,-102.53568267822266 C145.76724243164062,-102.53568267822266 145.76724243164062,154.34971618652344 145.76724243164062,154.34971618652344 C145.76724243164062,154.34971618652344 0,154.34971618652344 0,154.34971618652344 C0,154.34971618652344 -145.61631774902344,154.34971618652344 -145.61631774902344,154.34971618652344 C-145.61631774902344,154.34971618652344 -145.61631774902344,-102.53568267822266 -145.61631774902344,-102.53568267822266 C-145.61631774902344,-102.53568267822266 145.76724243164062,-102.53568267822266 145.76724243164062,-102.53568267822266z M-148.68531799316406,154.34971618652344 C-148.68531799316406,154.34971618652344 148.83624267578125,154.34971618652344 148.83624267578125,154.34971618652344 C148.83624267578125,154.34971618652344 148.83624267578125,-94.67485809326172 148.83624267578125,-94.67485809326172 C148.83624267578125,-105.72085571289062 139.8822479248047,-108.6280746459961 128.83624267578125,-108.6280746459961 C128.83624267578125,-108.6280746459961 -128.68531799316406,-108.6280746459961 -128.68531799316406,-108.6280746459961 C-139.7313232421875,-108.6280746459961 -148.68531799316406,-105.72085571289062 -148.68531799316406,-94.67485809326172 C-148.68531799316406,-94.67485809326172 -148.68531799316406,154.34971618652344 -148.68531799316406,154.34971618652344z"/></g></g></g><mask id="__lottie_element_7982_1" mask-type="alpha"><use xmlns:ns5="http://www.w3.org/1999/xlink" ns5:href="#__lottie_element_7982"/></mask><mask id="__lottie_element_7973_1" mask-type="alpha"><use xmlns:ns6="http://www.w3.org/1999/xlink" ns6:href="#__lottie_element_7973"/></mask><g id="__lottie_element_7991"><g transform="matrix(0,-1,1,0,215,188.99899291992188)" opacity="1" style="display: block;"><g opacity="1" transform="matrix(1,0,0,1,0,0)"><path fill="rgb(255,0,0)" fill-opacity="1" d=" M-187.64602661132812,112.21357727050781 C-187.64602661132812,112.21357727050781 144.9373779296875,112.21357727050781 144.9373779296875,112.21357727050781 C151.2363739013672,112.21357727050781 156.45037841796875,107.10870361328125 156.34136962890625,100.7007064819336 C156.34136962890625,100.7007064819336 156.34136962890625,-100.64661407470703 156.34136962890625,-100.64661407470703 C156.34136962890625,-106.94561004638672 151.2363739013672,-112.15860748291016 144.828369140625,-112.15860748291016 C144.828369140625,-112.15860748291016 -187.64602661132812,-112.15860748291016 -187.64602661132812,-112.15860748291016 C-193.9450225830078,-112.15860748291016 -199.1581573486328,-107.05461120605469 -199.1581573486328,-100.64661407470703 C-199.1581573486328,-100.64661407470703 -199.1581573486328,100.7007064819336 -199.1581573486328,100.7007064819336 C-199.1581573486328,106.99971008300781 -194.0540313720703,112.21357727050781 -187.64602661132812,112.21357727050781z"/></g><g opacity="1" transform="matrix(1,0,0,1,0,0)"><path stroke-linecap="round" stroke-linejoin="round" fill-opacity="0" stroke="rgb(255,0,0)" stroke-opacity="1" stroke-width="7" d=" M-187.64602661132812,112.21357727050781 C-187.64602661132812,112.21357727050781 144.9373779296875,112.21357727050781 144.9373779296875,112.21357727050781 C151.2363739013672,112.21357727050781 156.45037841796875,107.10870361328125 156.34136962890625,100.7007064819336 C156.34136962890625,100.7007064819336 156.34136962890625,-100.64661407470703 156.34136962890625,-100.64661407470703 C156.34136962890625,-106.94561004638672 151.2363739013672,-112.15860748291016 144.828369140625,-112.15860748291016 C144.828369140625,-112.15860748291016 -187.64602661132812,-112.15860748291016 -187.64602661132812,-112.15860748291016 C-193.9450225830078,-112.15860748291016 -199.1581573486328,-107.05461120605469 -199.1581573486328,-100.64661407470703 C-199.1581573486328,-100.64661407470703 -199.1581573486328,100.7007064819336 -199.1581573486328,100.7007064819336 C-199.1581573486328,106.99971008300781 -194.0540313720703,112.21357727050781 -187.64602661132812,112.21357727050781z"/></g></g></g><mask id="__lottie_element_7991_1" mask-type="alpha"><use xmlns:ns7="http://www.w3.org/1999/xlink" ns7:href="#__lottie_element_7991"/></mask></defs><g clip-path="url(#__lottie_element_7803)"><g clip-path="url(#__lottie_element_7805)" transform="matrix(1,0,0,1,0,0)" opacity="1" style="display: block;"><g transform="matrix(0,-1,1,0,215,189)" opacity="1" style="display: block;"/><g transform="matrix(1,0,0,1,218.7218780517578,160.23837280273438)" opacity="1" style="display: block;"/><g transform="matrix(1,0,0,1,210,345)" opacity="1" style="display: none;"><g opacity="1" transform="matrix(1,0,0,1,5,0)"><path class="quaternary" fill="rgb(235,230,239)" fill-opacity="1" d=" M33.75,15 C33.75,15 30,-30.625 30,-30.625 C30,-30.625 -30,-30.625 -30,-30.625 C-30,-30.625 -33.75,15 -33.75,15 C-33.75,15 -67,15 -67,15 C-68.65699768066406,15 -70,16.343000411987305 -70,18 C-70,18 -70,27 -70,27 C-70,28.656999588012695 -68.65699768066406,30 -67,30 C-67,30 67,30 67,30 C68.65699768066406,30 70,28.656999588012695 70,27 C70,27 70,18 70,18 C70,16.343000411987305 68.65699768066406,15 67,15 C67,15 33.75,15 33.75,15z"/></g><g opacity="0.5" transform="matrix(1,0,0,1,-15,0)" style="mix-blend-mode: multiply;"><path class="quaternary" fill="rgb(235,230,239)" fill-opacity="1" d=" M0,30 C0,30 3.75,-15.625 3.75,-15.625 C3.75,-15.625 51.25,-15.625 51.25,-15.625 C51.25,-15.625 50,-30.625 50,-30.625 C50,-30.625 -10,-30.625 -10,-30.625 C-10,-30.625 -13.75,15 -13.75,15 C-13.75,15 -47,15 -47,15 C-48.65700149536133,15 -50,16.343000411987305 -50,18 C-50,18 -50,27 -50,27 C-50,28.656999588012695 -48.65700149536133,30 -47,30 C-47,30 0,30 0,30z"/></g></g><g transform="matrix(1,0,0,1,210,345)" opacity="1" style="display: block;"><g opacity="1" transform="matrix(1,0,0,1,5,0)"><path class="quaternary" fill="rgb(235,230,239)" fill-opacity="1" d=" M33.75,-24.699508666992188 C33.75,-24.699508666992188 30,-30.51593589782715 30,-30.51593589782715 C30,-30.51593589782715 -30,-30.51593589782715 -30,-30.51593589782715 C-30,-30.51593589782715 -33.75,-24.699508666992188 -33.75,-24.699508666992188 C-33.75,-24.699508666992188 -67,-24.699508666992188 -67,-24.699508666992188 C-68.65699768066406,-24.699508666992188 -70,-23.356510162353516 -70,-21.699508666992188 C-70,-21.699508666992188 -70,-12.699509620666504 -70,-12.699509620666504 C-70,-11.042509078979492 -68.65699768066406,-9.699509620666504 -67,-9.699509620666504 C-67,-9.699509620666504 67,-9.699509620666504 67,-9.699509620666504 C68.65699768066406,-9.699509620666504 70,-11.042509078979492 70,-12.699509620666504 C70,-12.699509620666504 70,-21.699508666992188 70,-21.699508666992188 C70,-23.356510162353516 68.65699768066406,-24.699508666992188 67,-24.699508666992188 C67,-24.699508666992188 33.75,-24.699508666992188 33.75,-24.699508666992188z"/></g><g opacity="0.5" transform="matrix(1,0,0,1,-15,0)" style="mix-blend-mode: multiply;"><path class="quaternary" fill="rgb(235,230,239)" fill-opacity="1" d=" M0,-9.699509620666504 C0,-9.699509620666504 3.75,-15.515934944152832 3.75,-15.515934944152832 C3.75,-15.515934944152832 51.25,-15.515934944152832 51.25,-15.515934944152832 C51.25,-15.515934944152832 50,-30.51593589782715 50,-30.51593589782715 C50,-30.51593589782715 -10,-30.51593589782715 -10,-30.51593589782715 C-10,-30.51593589782715 -13.75,-24.699508666992188 -13.75,-24.699508666992188 C-13.75,-24.699508666992188 -47,-24.699508666992188 -47,-24.699508666992188 C-48.65700149536133,-24.699508666992188 -50,-23.356510162353516 -50,-21.699508666992188 C-50,-21.699508666992188 -50,-12.699509620666504 -50,-12.699509620666504 C-50,-11.042509078979492 -48.65700149536133,-9.699509620666504 -47,-9.699509620666504 C-47,-9.699509620666504 0,-9.699509620666504 0,-9.699509620666504z"/></g></g><g transform="matrix(0,-1,1,0,215,188.99899291992188)" opacity="1" style="display: none;"><g opacity="1" transform="matrix(1,0,0,1,0,0)"><g opacity="1" transform="matrix(1,0,0,1,0,0)"><path class="primary" fill="rgb(58,51,71)" fill-opacity="1" d=" M-99.68499755859375,165.16400146484375 C-99.68499755859375,165.16400146484375 118.97999572753906,165.16400146484375 118.97999572753906,165.16400146484375 C125.27899932861328,165.16400146484375 130.4929962158203,160.05999755859375 130.38400268554688,153.65199279785156 C130.38400268554688,153.65199279785156 130.38400268554688,-153.65199279785156 130.38400268554688,-153.65199279785156 C130.38400268554688,-159.9510040283203 125.27899932861328,-165.16400146484375 118.8709945678711,-165.16400146484375 C118.8709945678711,-165.16400146484375 -99.68499755859375,-165.16400146484375 -99.68499755859375,-165.16400146484375 C-105.98400115966797,-165.16400146484375 -111.197998046875,-160.05999755859375 -111.197998046875,-153.65199279785156 C-111.197998046875,-153.65199279785156 -111.197998046875,153.65199279785156 -111.197998046875,153.65199279785156 C-111.197998046875,159.9510040283203 -106.09300231933594,165.16400146484375 -99.68499755859375,165.16400146484375z"/></g><path class="secondary" fill="rgb(75,179,253)" fill-opacity="1" d=" M-78.14500427246094,156.5699920654297 C-78.14500427246094,156.5699920654297 106.48699188232422,156.5699920654297 106.48699188232422,156.5699920654297 C113.05999755859375,156.5699920654297 118.49899291992188,151.24398803710938 118.38599395751953,144.55799865722656 C118.38599395751953,144.55799865722656 118.38599395751953,-145.0500030517578 118.38599395751953,-145.0500030517578 C118.38599395751953,-151.6230010986328 113.05999755859375,-157.06300354003906 106.37399291992188,-157.06300354003906 C106.37399291992188,-157.06300354003906 -78.14500427246094,-157.06300354003906 -78.14500427246094,-157.06300354003906 C-84.71800231933594,-157.06300354003906 -90.15799713134766,-151.73599243164062 -90.15799713134766,-145.0500030517578 C-90.15799713134766,-145.0500030517578 -90.15799713134766,144.55799865722656 -90.15799713134766,144.55799865722656 C-90.15799713134766,151.13099670410156 -84.83100128173828,156.5699920654297 -78.14500427246094,156.5699920654297z"/></g><g opacity="1" transform="matrix(1,0,0,1,0,0)"><path stroke-linecap="round" stroke-linejoin="round" fill-opacity="0" class="primary" stroke="rgb(58,51,71)" stroke-opacity="1" stroke-width="7" d=" M-99.68499755859375,165.16400146484375 C-99.68499755859375,165.16400146484375 118.97999572753906,165.16400146484375 118.97999572753906,165.16400146484375 C125.27899932861328,165.16400146484375 130.4929962158203,160.05999755859375 130.38400268554688,153.65199279785156 C130.38400268554688,153.65199279785156 130.38400268554688,-153.65199279785156 130.38400268554688,-153.65199279785156 C130.38400268554688,-159.9510040283203 125.27899932861328,-165.16400146484375 118.8709945678711,-165.16400146484375 C118.8709945678711,-165.16400146484375 -99.68499755859375,-165.16400146484375 -99.68499755859375,-165.16400146484375 C-105.98400115966797,-165.16400146484375 -111.197998046875,-160.05999755859375 -111.197998046875,-153.65199279785156 C-111.197998046875,-153.65199279785156 -111.197998046875,153.65199279785156 -111.197998046875,153.65199279785156 C-111.197998046875,159.9510040283203 -106.09300231933594,165.16400146484375 -99.68499755859375,165.16400146484375z"/></g></g><g transform="matrix(0,-1,1,0,215,188.99899291992188)" opacity="1" style="display: block;"><g opacity="1" transform="matrix(1,0,0,1,0,0)"><g opacity="1" transform="matrix(1,0,0,1,0,0)"><path class="primary" fill="rgb(58,51,71)" fill-opacity="1" d=" M-187.64602661132812,112.21357727050781 C-187.64602661132812,112.21357727050781 144.9373779296875,112.21357727050781 144.9373779296875,112.21357727050781 C151.2363739013672,112.21357727050781 156.45037841796875,107.10870361328125 156.34136962890625,100.7007064819336 C156.34136962890625,100.7007064819336 156.34136962890625,-100.64661407470703 156.34136962890625,-100.64661407470703 C156.34136962890625,-106.94561004638672 151.2363739013672,-112.15860748291016 144.828369140625,-112.15860748291016 C144.828369140625,-112.15860748291016 -187.64602661132812,-112.15860748291016 -187.64602661132812,-112.15860748291016 C-193.9450225830078,-112.15860748291016 -199.1581573486328,-107.05461120605469 -199.1581573486328,-100.64661407470703 C-199.1581573486328,-100.64661407470703 -199.1581573486328,100.7007064819336 -199.1581573486328,100.7007064819336 C-199.1581573486328,106.99971008300781 -194.0540313720703,112.21357727050781 -187.64602661132812,112.21357727050781z"/></g><path class="secondary" fill="rgb(75,179,253)" fill-opacity="1" d=" M-184.90003967285156,111.11798858642578 C-184.90003967285156,111.11798858642578 143.3447265625,111.11798858642578 143.3447265625,111.11798858642578 C149.67864990234375,111.11798858642578 154.9213409423828,105.98481750488281 154.81182861328125,99.54137420654297 C154.81182861328125,99.54137420654297 154.81182861328125,-99.55000305175781 154.81182861328125,-99.55000305175781 C154.81182861328125,-105.88392639160156 149.67864990234375,-111.12586975097656 143.23521423339844,-111.12586975097656 C143.23521423339844,-111.12586975097656 -184.90003967285156,-111.12586975097656 -184.90003967285156,-111.12586975097656 C-191.2339630126953,-111.12586975097656 -196.4759063720703,-105.99343872070312 -196.4759063720703,-99.55000305175781 C-196.4759063720703,-99.55000305175781 -196.4759063720703,99.54137420654297 -196.4759063720703,99.54137420654297 C-196.4759063720703,105.87530517578125 -191.34347534179688,111.11798858642578 -184.90003967285156,111.11798858642578z"/></g><g opacity="1" transform="matrix(1,0,0,1,0,0)"><path stroke-linecap="round" stroke-linejoin="round" fill-opacity="0" class="primary" stroke="rgb(58,51,71)" stroke-opacity="1" stroke-width="7" d=" M-187.64602661132812,112.21357727050781 C-187.64602661132812,112.21357727050781 144.9373779296875,112.21357727050781 144.9373779296875,112.21357727050781 C151.2363739013672,112.21357727050781 156.45037841796875,107.10870361328125 156.34136962890625,100.7007064819336 C156.34136962890625,100.7007064819336 156.34136962890625,-100.64661407470703 156.34136962890625,-100.64661407470703 C156.34136962890625,-106.94561004638672 151.2363739013672,-112.15860748291016 144.828369140625,-112.15860748291016 C144.828369140625,-112.15860748291016 -187.64602661132812,-112.15860748291016 -187.64602661132812,-112.15860748291016 C-193.9450225830078,-112.15860748291016 -199.1581573486328,-107.05461120605469 -199.1581573486328,-100.64661407470703 C-199.1581573486328,-100.64661407470703 -199.1581573486328,100.7007064819336 -199.1581573486328,100.7007064819336 C-199.1581573486328,106.99971008300781 -194.0540313720703,112.21357727050781 -187.64602661132812,112.21357727050781z"/></g></g><g transform="matrix(1.2189825773239136,-1.22102689743042,1.22102689743042,1.2189825773239136,337.0206298828125,330.15283203125)" opacity="1" style="display: none;"><g opacity="1" transform="matrix(1,0,0,1,0,0)"><path stroke-linecap="round" stroke-linejoin="round" fill-opacity="0" class="primary" stroke="rgb(58,51,71)" stroke-opacity="1" stroke-width="7" d=" M7.2645769119262695,-14.511258125305176 C7.2645769119262695,-14.511258125305176 -17.001163482666016,-14.511258125305176 -17.001163482666016,-14.511258125305176"/></g></g><g transform="matrix(0.001211847411468625,-0.9999992847442627,0.9999992847442627,0.001211847411468625,40.94112014770508,214.7890625)" opacity="1" style="display: none;"><g opacity="1" transform="matrix(1,0,0,1,0,0)"><path class="primary" fill="rgb(58,51,71)" fill-opacity="1" d=" M-46.96699905395508,16.271392822265625 C-46.96699905395508,16.271392822265625 -54.375,16.197402954101562 -54.375,16.197402954101562 C-54.375,16.197402954101562 54.375,16.197402954101562 54.375,16.197402954101562 C54.375,16.197402954101562 46.96699905395508,16.271392822265625 46.96699905395508,16.271392822265625 C45.395999908447266,16.28693389892578 41.77399826049805,16.29712677001953 37.766998291015625,16.29712677001953 C37.766998291015625,16.29712677001953 -37.766998291015625,16.29712677001953 -37.766998291015625,16.29712677001953 C-41.77399826049805,16.29712677001953 -45.395999908447266,16.28693389892578 -46.96699905395508,16.271392822265625z"/><path class="primary" fill="rgb(58,51,71)" fill-opacity="0.5" d=" M-46.96699905395508,16.271392822265625 C-46.96699905395508,16.271392822265625 -54.375,16.197402954101562 -54.375,16.197402954101562 C-54.375,16.197402954101562 54.375,16.197402954101562 54.375,16.197402954101562 C54.375,16.197402954101562 46.96699905395508,16.271392822265625 46.96699905395508,16.271392822265625 C45.395999908447266,16.28693389892578 41.77399826049805,16.29712677001953 37.766998291015625,16.29712677001953 C37.766998291015625,16.29712677001953 -37.766998291015625,16.29712677001953 -37.766998291015625,16.29712677001953 C-41.77399826049805,16.29712677001953 -45.395999908447266,16.28693389892578 -46.96699905395508,16.271392822265625z" style="mix-blend-mode: multiply;"/></g><g opacity="1" transform="matrix(1,0,0,1,-33.625,0)" style="mix-blend-mode: multiply;"><path class="primary" fill="rgb(58,51,71)" fill-opacity="1" d=" M-20.804000854492188,16.197402954101562 C-20.804000854492188,16.197402954101562 -13.395000457763672,16.271392822265625 -13.395000457763672,16.271392822265625 C-11.824000358581543,16.28693389892578 -8.20300006866455,16.29712677001953 -4.196000099182129,16.29712677001953 C-4.196000099182129,16.29712677001953 20.804000854492188,16.29712677001953 20.804000854492188,16.29712677001953 C16.797000885009766,16.29712677001953 13.175999641418457,16.28693389892578 11.604999542236328,16.271392822265625 C11.604999542236328,16.271392822265625 4.196000099182129,16.197402954101562 4.196000099182129,16.197402954101562 C4.196000099182129,16.197402954101562 -20.804000854492188,16.197402954101562 -20.804000854492188,16.197402954101562z"/></g></g><g transform="matrix(1,0,0,1,215,40.941001892089844)" opacity="1" style="display: block;"><g opacity="1" transform="matrix(1,0,0,1,0,0)"><path class="primary" fill="rgb(58,51,71)" fill-opacity="1" d=" M-46.96699905395508,8.387174606323242 C-46.96699905395508,8.387174606323242 -54.375,-6.758151054382324 -54.375,-6.758151054382324 C-54.375,-6.758151054382324 54.375,-6.758151054382324 54.375,-6.758151054382324 C54.375,-6.758151054382324 46.96699905395508,8.387174606323242 46.96699905395508,8.387174606323242 C45.395999908447266,11.599063873291016 41.77399826049805,13.684191703796387 37.766998291015625,13.684191703796387 C37.766998291015625,13.684191703796387 -37.766998291015625,13.684191703796387 -37.766998291015625,13.684191703796387 C-41.77399826049805,13.684191703796387 -45.395999908447266,11.599063873291016 -46.96699905395508,8.387174606323242z"/><path class="primary" fill="rgb(58,51,71)" fill-opacity="0.5" d=" M-46.96699905395508,8.387174606323242 C-46.96699905395508,8.387174606323242 -54.375,-6.758151054382324 -54.375,-6.758151054382324 C-54.375,-6.758151054382324 54.375,-6.758151054382324 54.375,-6.758151054382324 C54.375,-6.758151054382324 46.96699905395508,8.387174606323242 46.96699905395508,8.387174606323242 C45.395999908447266,11.599063873291016 41.77399826049805,13.684191703796387 37.766998291015625,13.684191703796387 C37.766998291015625,13.684191703796387 -37.766998291015625,13.684191703796387 -37.766998291015625,13.684191703796387 C-41.77399826049805,13.684191703796387 -45.395999908447266,11.599063873291016 -46.96699905395508,8.387174606323242z" style="mix-blend-mode: multiply;"/></g><g opacity="1" transform="matrix(1,0,0,1,-33.625,0)" style="mix-blend-mode: multiply;"><path class="primary" fill="rgb(58,51,71)" fill-opacity="1" d=" M-20.804000854492188,-6.758151054382324 C-20.804000854492188,-6.758151054382324 -13.395000457763672,8.387174606323242 -13.395000457763672,8.387174606323242 C-11.824000358581543,11.599063873291016 -8.20300006866455,13.684191703796387 -4.196000099182129,13.684191703796387 C-4.196000099182129,13.684191703796387 20.804000854492188,13.684191703796387 20.804000854492188,13.684191703796387 C16.797000885009766,13.684191703796387 13.175999641418457,11.599063873291016 11.604999542236328,8.387174606323242 C11.604999542236328,8.387174606323242 4.196000099182129,-6.758151054382324 4.196000099182129,-6.758151054382324 C4.196000099182129,-6.758151054382324 -20.804000854492188,-6.758151054382324 -20.804000854492188,-6.758151054382324z"/></g></g><g transform="matrix(0.7065141201019287,-0.7076989412307739,0.7076989412307739,0.7065141201019287,215.00070190429688,214.99929809570312)" opacity="1" style="display: none;"><g opacity="1" transform="matrix(1,0,0,1,0,0)"><path stroke-linecap="round" stroke-linejoin="round" fill-opacity="0" class="primary" stroke="rgb(58,51,71)" stroke-opacity="1" stroke-width="7" d=" M-101.75774383544922,166.6768341064453 C-101.75774383544922,166.6768341064453 93.1050033569336,166.6768341064453 93.1050033569336,166.6768341064453 C99.40399932861328,166.6768341064453 104.61799621582031,161.5728302001953 104.50900268554688,155.1648406982422 C104.50900268554688,155.1648406982422 104.50900268554688,-155.1648406982422 104.50900268554688,-155.1648406982422 C104.50900268554688,-161.46383666992188 99.40399932861328,-166.6768341064453 92.99600219726562,-166.6768341064453 C92.99600219726562,-166.6768341064453 -101.75774383544922,-166.6768341064453 -101.75774383544922,-166.6768341064453 C-108.0567398071289,-166.6768341064453 -113.26974487304688,-161.5728302001953 -113.26974487304688,-155.1648406982422 C-113.26974487304688,-155.1648406982422 -113.26974487304688,155.1648406982422 -113.26974487304688,155.1648406982422 C-113.26974487304688,161.46383666992188 -108.16574096679688,166.6768341064453 -101.75774383544922,166.6768341064453z"/></g></g><g transform="matrix(1,0,0,1,215.00100708007812,215)" opacity="1" style="display: block;"><g opacity="1" transform="matrix(1,0,0,1,0,0)"><path stroke-linecap="round" stroke-linejoin="round" fill-opacity="0" class="primary" stroke="rgb(58,51,71)" stroke-opacity="1" stroke-width="7" d=" M-101.98285675048828,171.18861389160156 C-101.98285675048828,171.18861389160156 102.08985900878906,171.18861389160156 102.08985900878906,171.18861389160156 C108.38885498046875,171.18861389160156 113.60285949707031,166.08460998535156 113.49385833740234,159.67660522460938 C113.49385833740234,159.67660522460938 113.49385833740234,-169.78457641601562 113.49385833740234,-169.78457641601562 C113.49385833740234,-176.0835723876953 108.38885498046875,-181.29656982421875 101.9808578491211,-181.29656982421875 C101.9808578491211,-181.29656982421875 -101.98285675048828,-181.29656982421875 -101.98285675048828,-181.29656982421875 C-108.2818603515625,-181.29656982421875 -113.49485778808594,-176.19256591796875 -113.49485778808594,-169.78457641601562 C-113.49485778808594,-169.78457641601562 -113.49485778808594,159.67660522460938 -113.49485778808594,159.67660522460938 C-113.49485778808594,165.97560119628906 -108.39085388183594,171.18861389160156 -101.98285675048828,171.18861389160156z"/></g></g><g transform="matrix(1,0,0,1,215,170)" opacity="1" style="display: none;"><g opacity="1" transform="matrix(1,0,0,1,0,0)"><path class="secondary" fill="rgb(75,179,253)" fill-opacity="1" d=" M155,-100 C155,-100 -155,-100 -155,-100 C-155,-100 -155,100 -155,100 C-155,100 155,100 155,100 C155,100 155,-100 155,-100z"/></g><g opacity="0.5" transform="matrix(1,0,0,1,-140,0)" style="mix-blend-mode: multiply;"><path class="secondary" fill="rgb(75,179,253)" fill-opacity="1" d=" M10,-95 C10,-95 -10,-95 -10,-95 C-10,-95 -10,95 -10,95 C-10,95 10,95 10,95 C10,95 10,-95 10,-95z"/></g><g opacity="1" transform="matrix(1,0,0,1,0,-10)"><path class="primary" fill="rgb(58,51,71)" fill-opacity="1" d=" M150,-85 C150,-85 150,105 150,105 C150,105 0,105 0,105 C0,105 -150,105 -150,105 C-150,105 -150,-85 -150,-85 C-150,-85 150,-85 150,-85z M-170,105 C-170,105 170,105 170,105 C170,105 170,-85 170,-85 C170,-96.0459976196289 161.04600524902344,-105 150,-105 C150,-105 -150,-105 -150,-105 C-161.04600524902344,-105 -170,-96.0459976196289 -170,-85 C-170,-85 -170,105 -170,105z"/></g><g opacity="0.5" transform="matrix(1,0,0,1,-150,-10)" style="mix-blend-mode: multiply;"><path class="primary" fill="rgb(58,51,71)" fill-opacity="1" d=" M-20,-85 C-20,-85 -20,105 -20,105 C-20,105 0,105 0,105 C0,105 0,-85 0,-85 C0,-96.0459976196289 8.954000473022461,-105 20,-105 C20,-105 0,-105 0,-105 C-11.045999526977539,-105 -20,-96.0459976196289 -20,-85z"/></g><g opacity="1" transform="matrix(1,0,0,1,0,120)"><path class="quaternary" fill="rgb(235,230,239)" fill-opacity="1" d=" M-170,5 C-170,5 -170,-25 -170,-25 C-170,-25 170,-25 170,-25 C170,-25 170,5 170,5 C170,16.04599952697754 161.04600524902344,25 150,25 C150,25 -150,25 -150,25 C-161.04600524902344,25 -170,16.04599952697754 -170,5z"/></g><g opacity="0.5" transform="matrix(1,0,0,1,-150,120)" style="mix-blend-mode: multiply;"><path class="quaternary" fill="rgb(235,230,239)" fill-opacity="1" d=" M-20,-25 C-20,-25 -20,5 -20,5 C-20,16.04599952697754 -11.045999526977539,25 0,25 C0,25 20,25 20,25 C8.954000473022461,25 0,16.04599952697754 0,5 C0,5 0,-25 0,-25 C0,-25 -20,-25 -20,-25z"/></g></g><g transform="matrix(1,0,0,1,218.7218780517578,153.61138916015625)" opacity="1" style="display: block;"><g opacity="1" transform="matrix(1,0,0,1,0,0)"><path class="quinary" fill="rgb(249,201,192)" fill-opacity="1" d=" M-50.522064208984375,-41.561805725097656 C-50.522064208984375,-41.561805725097656 58.477935791015625,-41.561805725097656 58.477935791015625,-41.561805725097656 C60.13493728637695,-41.561805725097656 61.477935791015625,-40.218807220458984 61.477935791015625,-38.561805725097656 C61.477935791015625,-38.561805725097656 61.477935791015625,40.438194274902344 61.477935791015625,40.438194274902344 C61.477935791015625,42.095191955566406 60.13493728637695,43.438194274902344 58.477935791015625,43.438194274902344 C58.477935791015625,43.438194274902344 -50.522064208984375,43.438194274902344 -50.522064208984375,43.438194274902344 C-52.17906188964844,43.438194274902344 -53.522064208984375,42.095191955566406 -53.522064208984375,40.438194274902344 C-53.522064208984375,40.438194274902344 -53.522064208984375,-38.561805725097656 -53.522064208984375,-38.561805725097656 C-53.522064208984375,-40.218807220458984 -52.17906188964844,-41.561805725097656 -50.522064208984375,-41.561805725097656z"/></g><g opacity="0.5" transform="matrix(1,0,0,1,-28.75,0)" style="mix-blend-mode: multiply;"><path class="quinary" fill="rgb(249,201,192)" fill-opacity="1" d=" M-24.772062301635742,40.438194274902344 C-24.772062301635742,40.438194274902344 -24.772062301635742,-38.561805725097656 -24.772062301635742,-38.561805725097656 C-24.772062301635742,-40.218807220458984 -23.42906379699707,-41.561805725097656 -21.772062301635742,-41.561805725097656 C-21.772062301635742,-41.561805725097656 32.727935791015625,-41.561805725097656 32.727935791015625,-41.561805725097656 C32.727935791015625,-41.561805725097656 32.727935791015625,43.438194274902344 32.727935791015625,43.438194274902344 C32.727935791015625,43.438194274902344 -21.772062301635742,43.438194274902344 -21.772062301635742,43.438194274902344 C-23.42906379699707,43.438194274902344 -24.772062301635742,42.095191955566406 -24.772062301635742,40.438194274902344z"/></g></g><g transform="matrix(1,0,0,1,197.04168701171875,308.6722717285156)" opacity="1" style="display: block;"><g opacity="1" transform="matrix(1,0,0,1,0,0)"><path stroke-linecap="round" stroke-linejoin="round" fill-opacity="0" class="tertiary" stroke="rgb(255,199,56)" stroke-opacity="1" stroke-width="7" d=" M55,0 C55,0 -55,0 -55,0"/></g><g opacity="1" transform="matrix(1,0,0,1,0,-40)"><path stroke-linecap="round" stroke-linejoin="round" fill-opacity="0" class="tertiary" stroke="rgb(255,199,56)" stroke-opacity="1" stroke-width="7" d=" M55,0 C55,0 -55,0 -55,0"/></g><g opacity="1" transform="matrix(1,0,0,1,0,-80)"><path stroke-linecap="round" stroke-linejoin="round" fill-opacity="0" class="tertiary" stroke="rgb(255,199,56)" stroke-opacity="1" stroke-width="7" d=" M55,0 C55,0 -55,0 -55,0"/></g></g><g mask="url(#__lottie_element_7955_1)" style="mix-blend-mode: multiply; display: none;"><g transform="matrix(1,0,0,1,215,170)" opacity="0.5"><g opacity="1" transform="matrix(1,0,0,1,-140,0)"><path class="secondary" fill="rgb(75,179,253)" fill-opacity="1" d=" M10,-95 C10,-95 -10,-95 -10,-95 C-10,-95 -10,95 -10,95 C-10,95 10,95 10,95 C10,95 10,-95 10,-95z"/></g></g></g><g mask="url(#__lottie_element_7973_1)" style="mix-blend-mode: multiply; display: none;"><g transform="matrix(1,0,0,1,215,170)" opacity="0.5"><g opacity="1" transform="matrix(1,0,0,1,-140,0)"><path class="secondary" fill="rgb(75,179,253)" fill-opacity="1" d=" M10,-152.5 C10,-152.5 -10,-152.5 -10,-152.5 C-10,-152.5 -10,164 -10,164 C-10,164 10,164 10,164 C10,164 10,-152.5 10,-152.5z"/></g></g></g><g transform="matrix(1,0,0,1,215,170)" opacity="1" style="display: none;"><g opacity="1" transform="matrix(1,0,0,1,0,-10)"><path class="primary" fill="rgb(58,51,71)" fill-opacity="1" d=" M150,-85 C150,-85 150,135 150,135 C150,135 0,135 0,135 C0,135 -150,135 -150,135 C-150,135 -150,-85 -150,-85 C-150,-85 150,-85 150,-85z M-170,135 C-170,135 170,135 170,135 C170,135 170,-85 170,-85 C170,-96.0459976196289 161.04600524902344,-105 150,-105 C150,-105 -150,-105 -150,-105 C-161.04600524902344,-105 -170,-96.0459976196289 -170,-85 C-170,-85 -170,135 -170,135z"/></g></g><g mask="url(#__lottie_element_7833_2)" style="display: none;"><g transform="matrix(0,-2.450000047683716,2.450000047683716,0,396.6605224609375,179.57400512695312)" opacity="1"><g opacity="1" transform="matrix(1,0,0,1,0,0)"><path stroke-linecap="round" stroke-linejoin="round" fill-opacity="0" class="quaternary" stroke="rgb(235,230,239)" stroke-opacity="1" stroke-width="2.104325211860214e-7" d=" M-6.5,-7.665999889373779 C-6.5,-7.665999889373779 -6.5,-7.665999889373779 -6.5,-7.665999889373779"/></g></g></g><g transform="matrix(1,0,0,1,215,170)" opacity="1" style="display: none;"><g opacity="1" transform="matrix(1,0,0,1,0,-10)"><path class="primary" fill="rgb(58,51,71)" fill-opacity="1" d=" M145.76724243164062,-102.53568267822266 C145.76724243164062,-102.53568267822266 145.76724243164062,154.34971618652344 145.76724243164062,154.34971618652344 C145.76724243164062,154.34971618652344 0,154.34971618652344 0,154.34971618652344 C0,154.34971618652344 -145.61631774902344,154.34971618652344 -145.61631774902344,154.34971618652344 C-145.61631774902344,154.34971618652344 -145.61631774902344,-102.53568267822266 -145.61631774902344,-102.53568267822266 C-145.61631774902344,-102.53568267822266 145.76724243164062,-102.53568267822266 145.76724243164062,-102.53568267822266z M-148.68531799316406,154.34971618652344 C-148.68531799316406,154.34971618652344 148.83624267578125,154.34971618652344 148.83624267578125,154.34971618652344 C148.83624267578125,154.34971618652344 148.83624267578125,-94.67485809326172 148.83624267578125,-94.67485809326172 C148.83624267578125,-105.72085571289062 139.8822479248047,-108.6280746459961 128.83624267578125,-108.6280746459961 C128.83624267578125,-108.6280746459961 -128.68531799316406,-108.6280746459961 -128.68531799316406,-108.6280746459961 C-139.7313232421875,-108.6280746459961 -148.68531799316406,-105.72085571289062 -148.68531799316406,-94.67485809326172 C-148.68531799316406,-94.67485809326172 -148.68531799316406,154.34971618652344 -148.68531799316406,154.34971618652344z"/></g></g><g mask="url(#__lottie_element_7982_1)" style="mix-blend-mode: multiply; display: none;"><g transform="matrix(1,0,0,1,215,170)" opacity="0.5"><g opacity="1" transform="matrix(1,0,0,1,-150,-10)"><path class="primary" fill="rgb(58,51,71)" fill-opacity="1" d=" M-29.67485809326172,-95.40047454833984 C-29.67485809326172,-95.40047454833984 -29.67485809326172,164.98411560058594 -29.67485809326172,164.98411560058594 C-29.67485809326172,164.98411560058594 -9.674858093261719,164.98411560058594 -9.674858093261719,164.98411560058594 C-9.674858093261719,164.98411560058594 -9.674858093261719,-95.40047454833984 -9.674858093261719,-95.40047454833984 C-9.674858093261719,-106.44647216796875 -0.7208578586578369,-115.40047454833984 10.325141906738281,-115.40047454833984 C10.325141906738281,-115.40047454833984 -9.674858093261719,-115.40047454833984 -9.674858093261719,-115.40047454833984 C-20.720857620239258,-115.40047454833984 -29.67485809326172,-106.44647216796875 -29.67485809326172,-95.40047454833984z"/></g></g></g><g mask="url(#__lottie_element_7943_1)" style="mix-blend-mode: multiply; display: none;"><g transform="matrix(1,0,0,1,215,170)" opacity="0.5"><g opacity="1" transform="matrix(1,0,0,1,-150,-10)"><path class="primary" fill="rgb(58,51,71)" fill-opacity="1" d=" M-20,-85 C-20,-85 -20,105 -20,105 C-20,105 -2.503603866443882e-7,105 -2.503603866443882e-7,105 C-2.503603866443882e-7,105 -2.503603866443882e-7,-85 -2.503603866443882e-7,-85 C-2.503603866443882e-7,-96.0459976196289 8.953999519348145,-105 20,-105 C20,-105 -2.503603866443882e-7,-105 -2.503603866443882e-7,-105 C-11.046000480651855,-105 -20,-96.0459976196289 -20,-85z"/></g></g></g><g mask="url(#__lottie_element_7836_1)" style="display: none;"><g transform="matrix(1,0,0,1,215,170)" opacity="1"><g opacity="1" transform="matrix(1,0,0,1,0,120)"><path class="quaternary" fill="rgb(235,230,239)" fill-opacity="1" d=" M-170,5 C-170,5 -170,-25 -170,-25 C-170,-25 170,-25 170,-25 C170,-25 170,5 170,5 C170,16.04599952697754 161.04600524902344,25 150,25 C150,25 -150,25 -150,25 C-161.04600524902344,25 -170,16.04599952697754 -170,5z"/></g><g opacity="0.5" transform="matrix(1,0,0,1,-150,120)" style="mix-blend-mode: multiply;"><path class="quaternary" fill="rgb(235,230,239)" fill-opacity="1" d=" M-20,-25 C-20,-25 -20,5 -20,5 C-20,16.04599952697754 -11.045999526977539,25 4.4218083417035814e-8,25 C4.4218083417035814e-8,25 20,25 20,25 C8.954000473022461,25 7.996887774197603e-8,16.04599952697754 4.4218083417035814e-8,5 C4.4218083417035814e-8,5 4.4218083417035814e-8,-25 4.4218083417035814e-8,-25 C4.4218083417035814e-8,-25 -20,-25 -20,-25z"/></g></g></g><g transform="matrix(1,0,0,1,215,170)" opacity="1" style="display: none;"><g opacity="1" transform="matrix(1,0,0,1,0,120)"><path class="quaternary" fill="rgb(235,230,239)" fill-opacity="1" d=" M-151.7023162841797,37.861148834228516 C-151.7023162841797,37.861148834228516 -151.7023162841797,16.823278427124023 -151.7023162841797,16.823278427124023 C-151.7023162841797,16.823278427124023 151.77699279785156,16.823278427124023 151.77699279785156,16.823278427124023 C151.77699279785156,16.823278427124023 151.77699279785156,37.861148834228516 151.77699279785156,37.861148834228516 C151.77699279785156,45.60729217529297 144.1673126220703,51.88639450073242 133.12132263183594,51.88639450073242 C133.12132263183594,51.88639450073242 -132.74789428710938,51.88639450073242 -132.74789428710938,51.88639450073242 C-143.7938995361328,51.88639450073242 -151.7023162841797,45.60729217529297 -151.7023162841797,37.861148834228516z"/></g><g opacity="0.5" transform="matrix(1,0,0,1,-150,120)" style="mix-blend-mode: multiply;"><path class="quaternary" fill="rgb(235,230,239)" fill-opacity="1" d=" M-1.7023158073425293,16.823278427124023 C-1.7023158073425293,16.823278427124023 -1.7023158073425293,37.861148834228516 -1.7023158073425293,37.861148834228516 C-1.7023158073425293,45.60729217529297 6.20610237121582,51.88639450073242 17.25210189819336,51.88639450073242 C17.25210189819336,51.88639450073242 37.25210189819336,51.88639450073242 37.25210189819336,51.88639450073242 C26.20610237121582,51.88639450073242 17.92426300048828,45.60729217529297 17.92426300048828,37.861148834228516 C17.92426300048828,37.861148834228516 17.92426300048828,16.823278427124023 17.92426300048828,16.823278427124023 C17.92426300048828,16.823278427124023 -1.7023158073425293,16.823278427124023 -1.7023158073425293,16.823278427124023z"/></g></g><g mask="url(#__lottie_element_7991_1)" style="display: block;"><g transform="matrix(1,0,0,1,215,170)" opacity="1"><g opacity="1" transform="matrix(1,0,0,1,0,120)"><path class="quaternary" fill="rgb(235,230,239)" fill-opacity="1" d=" M-116.558349609375,100.97683715820312 C-116.558349609375,100.97683715820312 -116.558349609375,97.15233612060547 -116.558349609375,97.15233612060547 C-116.558349609375,97.15233612060547 116.77648162841797,97.15233612060547 116.77648162841797,97.15233612060547 C116.77648162841797,97.15233612060547 116.77648162841797,100.97683715820312 116.77648162841797,100.97683715820312 C116.77648162841797,102.38501739501953 111.74880981445312,103.52650451660156 100.70280456542969,103.52650451660156 C100.70280456542969,103.52650451660156 -99.6121597290039,103.52650451660156 -99.6121597290039,103.52650451660156 C-110.65815734863281,103.52650451660156 -116.558349609375,102.38501739501953 -116.558349609375,100.97683715820312z"/></g><g opacity="0.5" transform="matrix(1,0,0,1,-150,120)" style="mix-blend-mode: multiply;"><path class="quaternary" fill="rgb(235,230,239)" fill-opacity="1" d=" M33.441646575927734,97.15233612060547 C33.441646575927734,97.15233612060547 33.441646575927734,100.97683715820312 33.441646575927734,100.97683715820312 C33.441646575927734,102.38501739501953 39.34183883666992,103.52650451660156 50.387840270996094,103.52650451660156 C50.387840270996094,103.52650451660156 70.3878402709961,103.52650451660156 70.3878402709961,103.52650451660156 C59.34183883666992,103.52650451660156 52.35100173950195,102.38501739501953 52.35100173950195,100.97683715820312 C52.35100173950195,100.97683715820312 52.35100173950195,97.15233612060547 52.35100173950195,97.15233612060547 C52.35100173950195,97.15233612060547 33.441646575927734,97.15233612060547 33.441646575927734,97.15233612060547z"/></g></g></g><g transform="matrix(1.2131991386413574,0,0,1.2131991386413574,216.3867950439453,372.8520812988281)" opacity="1" style="display: block;"><g opacity="1" transform="matrix(1,0,0,1,0,0)"><path stroke-linecap="round" stroke-linejoin="round" fill-opacity="0" class="primary" stroke="rgb(58,51,71)" stroke-opacity="1" stroke-width="7" d=" M40.6749153137207,-6.389651298522949 C40.6749153137207,-6.389651298522949 -41.77619934082031,-6.389651298522949 -41.77619934082031,-6.389651298522949"/></g></g><g transform="matrix(2.2369272708892822,0,0,2.2369272708892822,223.04103088378906,392.558837890625)" opacity="1" style="display: none;"><g opacity="1" transform="matrix(1,0,0,1,0,0)"><path stroke-linecap="round" stroke-linejoin="round" fill-opacity="0" class="quaternary" stroke="rgb(235,230,239)" stroke-opacity="1" stroke-width="7" d=" M3.9075422286987305,-37.071136474609375 C3.9075422286987305,-37.071136474609375 -10.296911239624023,-37.071136474609375 -10.296911239624023,-37.071136474609375"/><path stroke-linecap="round" stroke-linejoin="round" fill-opacity="0" class="quaternary" stroke="rgb(235,230,239)" stroke-opacity="0.5" stroke-width="7" d=" M3.9075422286987305,-37.071136474609375 C3.9075422286987305,-37.071136474609375 -10.296911239624023,-37.071136474609375 -10.296911239624023,-37.071136474609375" style="mix-blend-mode: multiply;"/></g></g><g transform="matrix(1,0,0,1,215,215.02505493164062)" opacity="1" style="display: none;"><g opacity="1" transform="matrix(1,0,0,1,0,5)"><path stroke-linecap="round" stroke-linejoin="round" fill-opacity="0" class="quaternary" stroke="rgb(235,230,239)" stroke-opacity="1" stroke-width="19.99544416219414" d=" M0.028999999165534973,70.17900085449219 C0.028999999165534973,70.17900085449219 -0.125,70.08499908447266 -0.125,70.08499908447266"/><path stroke-linecap="round" stroke-linejoin="round" fill-opacity="0" class="quaternary" stroke="rgb(235,230,239)" stroke-opacity="0.5" stroke-width="19.99544416219414" d=" M0.028999999165534973,70.17900085449219 C0.028999999165534973,70.17900085449219 -0.125,70.08499908447266 -0.125,70.08499908447266" style="mix-blend-mode: multiply;"/></g></g></g></g></svg>